<?xml version="1.0" encoding="iso-8859-1"?>
<!-- Uploaded to: SVG Repo, www.svgrepo.com, Generator: SVG Repo Mixer Tools -->
<!DOCTYPE svg PUBLIC "-//W3C//DTD SVG 1.1//EN" "http://www.w3.org/Graphics/SVG/1.1/DTD/svg11.dtd">
<svg fill="#000000" height="800px" width="800px" version="1.1" id="Capa_1" xmlns="http://www.w3.org/2000/svg" xmlns:xlink="http://www.w3.org/1999/xlink" 
	 viewBox="0 0 421.301 421.301" xml:space="preserve">
<g>
	<path d="M380.233,386.867c0.074-0.101,0.148-0.201,0.217-0.306c0.056-0.085,0.107-0.175,0.159-0.263
		c0.073-0.121,0.146-0.242,0.212-0.369c0.042-0.08,0.079-0.162,0.118-0.244c0.065-0.137,0.13-0.272,0.188-0.413
		c0.035-0.086,0.063-0.174,0.095-0.261c0.05-0.139,0.101-0.275,0.144-0.418c0.032-0.107,0.057-0.219,0.085-0.328
		c0.03-0.122,0.063-0.242,0.088-0.367c0.03-0.152,0.049-0.307,0.07-0.46c0.012-0.086,0.027-0.171,0.036-0.257
		c0.021-0.207,0.029-0.416,0.032-0.626c0-0.036,0.005-0.069,0.005-0.105c0-0.009,0-0.019,0-0.027c0-0.025,0-0.05-0.001-0.075
		c-0.005-73.894-5.833-139.559-17.323-195.169c-9.255-44.794-22.199-83.268-38.471-114.354
		c-28.354-54.163-57.314-67.541-58.533-68.084c-2.837-1.263-6.159-0.648-8.355,1.548l-9.304,9.303h-24.098
		c3.774-2.644,6.409-6.019,4.753-9.957c-3.42-8.133-12.465-3.925-16.795,7.653c-1.331-6.579-4.21-14.224-10.383-13.194
		c-7.648,1.273-7.029,8.976,0.198,15.498h-21.907l-9.303-9.303c-2.136-2.137-5.345-2.78-8.141-1.639
		c-1.32,0.539-32.684,13.837-63.545,67.938c-17.749,31.113-31.867,69.624-41.961,114.461
		c-12.53,55.652-18.886,121.36-18.892,195.299c0,0.025,0,0.051,0,0.076c0,0.008,0,0.018,0,0.026c0,0.036,0.005,0.069,0.005,0.105
		c0.003,0.21,0.011,0.419,0.032,0.626c0.008,0.086,0.024,0.171,0.036,0.257c0.021,0.153,0.04,0.308,0.07,0.46
		c0.024,0.125,0.058,0.245,0.088,0.367c0.028,0.109,0.052,0.221,0.084,0.328c0.042,0.143,0.093,0.279,0.144,0.418
		c0.032,0.087,0.061,0.175,0.095,0.261c0.057,0.141,0.123,0.276,0.188,0.413c0.04,0.082,0.076,0.164,0.118,0.244
		c0.066,0.127,0.139,0.248,0.212,0.369c0.053,0.088,0.103,0.178,0.159,0.263c0.069,0.104,0.144,0.205,0.217,0.306
		c0.071,0.098,0.141,0.195,0.216,0.289c0.067,0.084,0.139,0.162,0.21,0.242c0.09,0.104,0.181,0.207,0.278,0.306
		c0.066,0.067,0.137,0.131,0.206,0.196c0.107,0.101,0.213,0.201,0.327,0.297c0.073,0.061,0.151,0.117,0.227,0.177
		c0.114,0.088,0.227,0.177,0.346,0.259c0.095,0.065,0.195,0.124,0.293,0.186c0.105,0.064,0.207,0.131,0.315,0.191
		c0.138,0.076,0.282,0.145,0.425,0.212c0.076,0.036,0.148,0.075,0.225,0.108c0.192,0.084,0.39,0.156,0.589,0.223
		c0.033,0.012,0.063,0.026,0.097,0.037c0.009,0.003,0.019,0.006,0.028,0.009c0.021,0.007,0.043,0.015,0.064,0.021
		c9.862,3.174,18.753,6.113,26.6,8.706c41.937,13.86,62.986,20.818,108.302,22.967c0.118,0.006,0.234,0.009,0.35,0.009
		c0.002,0,0.003,0,0.005,0c0.001,0,0.001,0,0.001,0c0.002,0,0.003,0,0.004,0c0.253,0,0.504-0.014,0.752-0.038
		c0.064-0.007,0.126-0.021,0.19-0.028c0.182-0.023,0.363-0.047,0.54-0.082c0.097-0.02,0.19-0.048,0.285-0.071
		c0.14-0.034,0.281-0.065,0.419-0.108c0.11-0.034,0.216-0.076,0.324-0.114c0.118-0.043,0.237-0.082,0.353-0.129
		c0.114-0.047,0.223-0.103,0.334-0.155c0.104-0.05,0.209-0.096,0.311-0.149c0.111-0.059,0.218-0.125,0.326-0.19
		c0.096-0.058,0.193-0.112,0.286-0.174c0.104-0.067,0.202-0.143,0.301-0.216c0.092-0.066,0.185-0.133,0.273-0.204
		c0.094-0.075,0.183-0.156,0.272-0.235c0.087-0.078,0.176-0.154,0.26-0.236c0.083-0.082,0.162-0.168,0.242-0.253
		c0.083-0.089,0.165-0.176,0.244-0.269c0.073-0.086,0.142-0.176,0.211-0.266c0.076-0.099,0.152-0.197,0.224-0.299
		c0.064-0.092,0.124-0.188,0.184-0.281c0.067-0.107,0.134-0.213,0.196-0.323c0.056-0.099,0.107-0.198,0.157-0.299
		c0.057-0.113,0.113-0.226,0.165-0.342c0.046-0.104,0.088-0.212,0.13-0.318c0.045-0.117,0.089-0.234,0.129-0.353
		c0.037-0.112,0.07-0.227,0.102-0.341c0.033-0.119,0.065-0.239,0.092-0.361c0.027-0.119,0.05-0.238,0.071-0.36
		s0.041-0.245,0.057-0.37c0.015-0.122,0.026-0.245,0.036-0.369c0.005-0.07,0.017-0.139,0.02-0.209
		c0.003-0.061-0.002-0.119-0.001-0.18c0.001-0.06,0.009-0.117,0.009-0.176v-19.069c10.065,0.52,20.167,0.79,30.256,0.79
		c8.54,0,17.068-0.193,25.557-0.565v18.845c0,0.059,0.007,0.116,0.009,0.176c0.001,0.06-0.003,0.119,0,0.18
		c0.003,0.07,0.015,0.139,0.02,0.209c0.009,0.124,0.021,0.247,0.036,0.369c0.016,0.125,0.035,0.248,0.057,0.371
		c0.021,0.121,0.044,0.24,0.071,0.359c0.028,0.123,0.06,0.243,0.094,0.363c0.032,0.113,0.064,0.226,0.101,0.337
		c0.04,0.122,0.085,0.241,0.131,0.359c0.041,0.104,0.082,0.209,0.127,0.311c0.053,0.119,0.11,0.235,0.169,0.352
		c0.049,0.097,0.098,0.193,0.151,0.288c0.064,0.114,0.134,0.226,0.204,0.335c0.058,0.091,0.114,0.182,0.175,0.27
		c0.075,0.107,0.154,0.21,0.234,0.313c0.065,0.085,0.13,0.17,0.2,0.252c0.083,0.098,0.17,0.191,0.258,0.284
		c0.075,0.08,0.149,0.161,0.227,0.237c0.089,0.086,0.183,0.168,0.276,0.25c0.085,0.075,0.169,0.151,0.257,0.223
		c0.094,0.076,0.193,0.147,0.291,0.217c0.094,0.069,0.186,0.14,0.284,0.204c0.099,0.065,0.203,0.124,0.305,0.186
		c0.102,0.061,0.202,0.123,0.307,0.179c0.107,0.058,0.219,0.107,0.329,0.159c0.105,0.05,0.208,0.102,0.316,0.147
		c0.121,0.05,0.245,0.091,0.369,0.135c0.103,0.036,0.204,0.077,0.308,0.108c0.141,0.043,0.286,0.076,0.43,0.111
		c0.092,0.021,0.182,0.049,0.275,0.068c0.178,0.035,0.36,0.06,0.542,0.082c0.064,0.008,0.125,0.022,0.189,0.028
		c0.247,0.024,0.498,0.038,0.752,0.038c0.001,0,0.003,0,0.004,0c0,0,0.001,0,0.002,0c0.002,0,0.003,0,0.005,0
		c0.116,0,0.233-0.003,0.35-0.009c39.855-1.89,55.115-7.324,85.515-18.152c10.902-3.884,23.257-8.283,39.532-13.521
		c0.021-0.006,0.042-0.014,0.063-0.02c0.01-0.004,0.019-0.007,0.028-0.01c0.033-0.011,0.064-0.025,0.097-0.037
		c0.2-0.066,0.397-0.139,0.589-0.223c0.077-0.033,0.149-0.072,0.225-0.108c0.144-0.067,0.287-0.136,0.425-0.212
		c0.108-0.061,0.21-0.127,0.315-0.191c0.098-0.062,0.198-0.12,0.293-0.186c0.12-0.082,0.232-0.171,0.346-0.259
		c0.076-0.06,0.154-0.115,0.227-0.177c0.113-0.096,0.22-0.196,0.327-0.297c0.069-0.065,0.14-0.129,0.206-0.196
		c0.097-0.099,0.188-0.202,0.278-0.306c0.071-0.08,0.143-0.158,0.21-0.242C380.092,387.062,380.162,386.965,380.233,386.867z
		 M243.485,30.592v5.767c-12.891,1.646-22.615,7.917-28.223,12.558c-7.84-5.785-17.203-9.501-27.589-10.963v-7.361H243.485z
		 M187.672,53.127c8.957,1.601,16.57,5.361,22.689,11.234c1.4,1.345,3.262,2.09,5.193,2.09c0.126,0,0.253-0.003,0.38-0.01
		c2.065-0.104,3.996-1.058,5.335-2.633c0.096-0.113,8.511-9.831,22.215-12.303v76.674c-23.18,10.282-43.515,6.573-55.813,2.135
		V53.127z M187.672,146.094c7.042,2.084,15.658,3.718,25.393,3.718c9.264,0,19.54-1.488,30.419-5.459v202.853
		c-18.525,0.834-37.24,0.762-55.813-0.223V146.094z M54.634,376.997c0.301-69.901,6.396-132.112,18.136-184.975
		c9.604-43.248,22.975-80.342,39.743-110.252c21.912-39.087,43.977-55.472,52.973-60.941l7.187,7.186v377.858
		c-37.896-2.437-57.165-8.805-96.45-21.79C69.732,381.937,62.519,379.555,54.634,376.997z M187.672,379.711v-17.709
		c10.059,0.52,20.155,0.79,30.245,0.79c8.54,0,17.073-0.193,25.568-0.565v17.707C224.97,380.769,206.255,380.697,187.672,379.711z
		 M331.822,389.01c-26.892,9.578-41.378,14.73-73.337,16.852V28.015l7.034-7.033c19.618,13.147,100.089,83.729,101.149,356.022
		C352.668,381.586,341.656,385.508,331.822,389.01z"/>
	<path d="M138.092,121.244c-3.756-1.744-8.216-0.112-9.961,3.645c-0.508,1.094-12.42,27.175-10.542,60.038
		c0.228,3.99,3.535,7.072,7.481,7.072c0.144,0,0.289-0.004,0.435-0.013c4.136-0.235,7.296-3.779,7.06-7.915
		c-1.65-28.885,9.008-52.509,9.176-52.875C143.477,127.441,141.846,122.987,138.092,121.244z"/>
	<path d="M293.962,121.244c-3.757,1.744-5.389,6.204-3.645,9.961c0.109,0.234,10.837,23.72,9.171,52.866
		c-0.236,4.135,2.924,7.679,7.06,7.915c0.146,0.009,0.29,0.013,0.435,0.013c3.946,0,7.253-3.083,7.481-7.072
		c1.878-32.863-10.034-58.944-10.542-60.038C302.179,121.131,297.719,119.5,293.962,121.244z"/>
	<circle cx="214.984" cy="85.234" r="7.5"/>
	<circle cx="214.984" cy="112.568" r="7.5"/>
</g>
</svg>