<?xml version="1.0" encoding="iso-8859-1"?>
<!-- Uploaded to: SVG Repo, www.svgrepo.com, Generator: SVG Repo Mixer Tools -->
<!DOCTYPE svg PUBLIC "-//W3C//DTD SVG 1.1//EN" "http://www.w3.org/Graphics/SVG/1.1/DTD/svg11.dtd">
<svg fill="#000000" version="1.1" id="Capa_1" xmlns="http://www.w3.org/2000/svg" xmlns:xlink="http://www.w3.org/1999/xlink" 
	 width="800px" height="800px" viewBox="0 0 61.466 61.467"
	 xml:space="preserve">
<g>
	<g>
		<path d="M6.223,29.864c-0.034,0.304-0.056,0.611-0.056,0.924c0,4.52,3.664,8.184,8.183,8.184c1.524,0,3.715-0.732,5.951-1.862
			c1.448,4.336,5.683,7.468,10.508,7.468c4.825,0,8.911-3.132,10.36-7.468c2.234,1.13,4.427,1.862,5.95,1.862
			c4.52,0,8.183-3.664,8.183-8.184c0-0.313-0.021-0.62-0.056-0.924c3.458-0.15,6.221-2.979,6.221-6.475
			c0-3.59-2.911-6.501-6.502-6.501c-0.686,0-1.337,0.131-1.955,0.329c0.433,3.5-0.595,7.851-8.806,6.958
			c-3.007-0.328-5.322-0.374-7.112-0.25c-0.279,0.084-1.036,0.163-1.138,0.108c-3.958,0.494-4.984,2.167-5.221,2.841
			c-0.236-0.674-1.262-2.347-5.22-2.841c-0.101,0.054-0.858-0.023-1.137-0.108c-1.791-0.123-4.106-0.077-7.112,0.25
			c-8.212,0.894-9.239-3.457-8.805-6.958c-0.619-0.198-1.269-0.329-1.957-0.329C2.911,16.888,0,19.798,0,23.39
			C0.001,26.885,2.765,29.714,6.223,29.864z"/>
	</g>
</g>
</svg>