<?xml version="1.0" encoding="iso-8859-1"?>
<!-- Uploaded to: SVG Repo, www.svgrepo.com, Generator: SVG Repo Mixer Tools -->
<!DOCTYPE svg PUBLIC "-//W3C//DTD SVG 1.1//EN" "http://www.w3.org/Graphics/SVG/1.1/DTD/svg11.dtd">
<svg fill="#000000" height="800px" width="800px" version="1.1" id="Capa_1" xmlns="http://www.w3.org/2000/svg" xmlns:xlink="http://www.w3.org/1999/xlink" 
	 viewBox="0 0 297 297" xml:space="preserve">
<path d="M296.494,181.646c-1.632-4.852-6.774-7.584-11.705-6.221c-3.096,0.854-6.054,1.285-8.794,1.285
	c-20.765,0-30.497-25.244-37.276-49.937c-6.053-22.041-26.201-37.436-48.996-37.436c-4.549,0-9.096,0.617-13.517,1.836
	c-11.609,3.203-21.164,10.225-27.706,19.33c-6.543-9.105-16.098-16.127-27.708-19.33c-4.419-1.219-8.966-1.836-13.515-1.836
	c-22.795,0-42.943,15.395-48.996,37.436c-6.779,24.693-16.512,49.936-37.277,49.937c-2.739,0-5.697-0.432-8.793-1.285
	c-4.932-1.363-10.072,1.369-11.705,6.221c-1.633,4.85,0.81,10.133,5.563,12.031c1.43,0.572,35.42,13.984,71.081,13.984
	c0.002,0,0.001,0,0.003,0c33.774,0,58.06-11.994,71.347-34.922c13.286,22.928,37.572,34.922,71.349,34.922
	c35.662,0,69.653-13.412,71.082-13.984C295.685,191.779,298.127,186.496,296.494,181.646z M137.714,148.686
	c-7.332,26.707-27.142,39.689-60.563,39.689c-9.716,0-19.422-1.162-28.228-2.779c4.663-3.92,9.247-9.219,13.468-16.322
	c7.851-13.209,12.008-28.348,14.492-37.395c3.759-13.691,16.257-23.254,30.394-23.254c2.817,0,5.638,0.385,8.386,1.143
	C132.442,114.396,142.334,131.855,137.714,148.686z M219.849,188.375c-33.421,0-53.23-12.982-60.563-39.689
	c-4.62-16.83,5.271-34.289,22.049-38.918c2.75-0.758,5.571-1.143,8.388-1.143c14.138,0,26.636,9.563,30.395,23.254
	c2.484,9.047,6.642,24.186,14.491,37.395c4.222,7.104,8.805,12.402,13.468,16.322C239.269,187.213,229.564,188.375,219.849,188.375z
	"/>
</svg>