<?xml version="1.0" encoding="iso-8859-1"?>
<!-- Uploaded to: SVG Repo, www.svgrepo.com, Generator: SVG Repo Mixer Tools -->
<svg height="800px" width="800px" version="1.1" id="Layer_1" xmlns="http://www.w3.org/2000/svg" xmlns:xlink="http://www.w3.org/1999/xlink" 
	 viewBox="0 0 512 512" xml:space="preserve">
<g>
	<g>
		<polygon style="fill:#2C5A7E;" points="57.399,100.066 163.289,100.066 150.858,57.399 57.399,57.399 		"/>
		<polygon style="fill:#2C5A7E;" points="361.147,57.399 348.711,100.066 454.601,100.066 454.601,57.399 		"/>
	</g>
	<g>
		<polygon style="fill:#6C686F;" points="256.001,119.28 209.41,57.399 174.224,10.669 150.858,57.399 163.289,100.066 
			180.846,160.351 		"/>
		<polygon style="fill:#6C686F;" points="302.593,57.399 256.001,119.28 331.155,160.351 348.711,100.066 361.147,57.399 
			337.778,10.669 		"/>
		<polygon style="fill:#6C686F;" points="209.41,57.399 302.593,57.399 337.778,10.669 174.224,10.669 		"/>
	</g>
	<polygon style="fill:#2C5A7E;" points="302.593,57.399 209.41,57.399 256.001,119.28 	"/>
	<g>
		<polygon style="fill:#6C686F;" points="180.846,160.351 163.289,100.066 57.399,100.066 57.399,215.833 185.397,215.833 
			185.397,269.166 121.397,279.831 57.399,269.166 57.399,501.331 256.001,501.331 256.001,119.28 		"/>
		<path style="fill:#6C686F;" d="M256.001,119.28v382.052h155.937H454.6V100.066H348.71l-17.555,60.285L256.001,119.28
			L256.001,119.28z M301.968,242.382l37.632-5.724l15.701-33.025l17.074,34.024l36.259,4.726l-27.083,26.753l6.712,35.942
			l-33.813-17.491l-32.113,17.491l6.187-37.562L301.968,242.382z"/>
	</g>
	<polygon style="fill:#E8863B;" points="301.968,242.382 328.526,267.516 322.339,305.078 354.451,287.587 388.265,305.078 
		381.553,269.135 408.636,242.382 372.376,237.656 355.301,203.632 339.6,236.657 	"/>
	<polygon style="fill:#2C5A7E;" points="185.397,269.166 185.397,215.833 57.399,215.833 57.399,269.166 121.397,279.831 	"/>
</g>
<g>
	<path style="fill:#000003;" d="M454.601,46.73H367.74L347.323,5.897c-0.219-0.437-0.468-0.852-0.739-1.248
		c-0.065-0.094-0.14-0.177-0.206-0.269c-0.214-0.292-0.433-0.579-0.675-0.846c-0.109-0.121-0.229-0.229-0.344-0.346
		c-0.217-0.219-0.433-0.435-0.667-0.634c-0.14-0.118-0.286-0.223-0.429-0.334c-0.227-0.175-0.459-0.346-0.7-0.503
		c-0.16-0.105-0.325-0.198-0.49-0.291c-0.242-0.138-0.485-0.269-0.735-0.389c-0.179-0.083-0.361-0.16-0.544-0.236
		c-0.252-0.102-0.507-0.196-0.767-0.28c-0.194-0.061-0.387-0.118-0.586-0.169c-0.262-0.068-0.527-0.123-0.796-0.171
		c-0.204-0.035-0.406-0.07-0.612-0.096c-0.096-0.011-0.188-0.035-0.284-0.044c-0.184-0.017-0.367-0.009-0.551-0.015
		C338.059,0.023,337.919,0,337.778,0H174.224c-0.14,0-0.273,0.023-0.411,0.029c-0.186,0.006-0.371-0.002-0.558,0.015
		c-0.096,0.009-0.188,0.033-0.282,0.044c-0.21,0.025-0.417,0.061-0.623,0.098c-0.262,0.046-0.525,0.1-0.783,0.166
		c-0.202,0.052-0.4,0.111-0.599,0.175c-0.254,0.081-0.505,0.171-0.748,0.271c-0.192,0.077-0.379,0.156-0.564,0.245
		c-0.242,0.114-0.477,0.242-0.711,0.376c-0.173,0.098-0.348,0.197-0.516,0.306c-0.229,0.148-0.448,0.313-0.667,0.477
		c-0.155,0.118-0.31,0.234-0.461,0.361c-0.217,0.186-0.421,0.387-0.623,0.592c-0.129,0.129-0.265,0.252-0.387,0.389
		c-0.214,0.24-0.409,0.496-0.602,0.756c-0.092,0.121-0.192,0.234-0.277,0.361c-0.269,0.392-0.514,0.804-0.732,1.235l-0.004,0.009
		l0,0l0,0l-20.41,40.825H57.399c-5.892,0-10.669,4.779-10.669,10.669v158.434v53.333v232.165c0,5.892,4.776,10.669,10.669,10.669
		h397.203c5.89,0,10.669-4.776,10.669-10.669V57.399C465.27,51.508,460.492,46.73,454.601,46.73z M443.933,89.397h-80.995
		l6.214-21.329h74.782V89.397z M338.559,96.788c-0.035,0.111-0.065,0.223-0.096,0.334l-13.839,47.503l-52.677-28.79l63.994-84.988
		l13.793,27.583L338.559,96.788z M256.001,101.544l-25.205-33.475h50.41L256.001,101.544z M316.39,21.338L297.272,46.73h-82.539
		l-19.121-25.393H316.39z M176.061,30.848l63.991,84.988l-52.675,28.789l-13.887-47.676c-0.009-0.027-0.017-0.054-0.025-0.081
		l-11.195-38.436L176.061,30.848z M142.855,68.068l6.211,21.329H68.067V68.068H142.855z M121.397,269.014l-53.329-8.885v-33.628
		h106.661v33.628L121.397,269.014z M68.067,281.761l42.66,7.108v45.403c0,5.89,4.779,10.669,10.669,10.669
		c5.892,0,10.669-4.779,10.669-10.669v-45.403l55.086-9.177c5.145-0.859,8.914-5.31,8.914-10.525v-53.333
		c0-5.89-4.776-10.669-10.669-10.669H68.067v-94.43h87.215l15.321,52.6c0.903,3.102,3.165,5.63,6.152,6.87
		c1.312,0.544,2.702,0.815,4.09,0.815c1.767,0,3.528-0.437,5.118-1.307l59.368-32.444v353.393H68.067V281.761z M422.607,490.662
		v-43.771c0-5.89-4.779-10.669-10.669-10.669c-5.893,0-10.669,4.779-10.669,10.669v43.771h-134.6V137.269l59.368,32.444
		c1.59,0.868,3.351,1.307,5.118,1.307c1.388,0,2.777-0.271,4.09-0.815c2.986-1.24,5.249-3.765,6.152-6.87l15.324-52.6h87.211
		v379.928H422.607z"/>
	<path style="fill:#000003;" d="M393.078,272.743l23.054-22.769c2.901-2.866,3.913-7.131,2.613-10.996
		c-1.301-3.863-4.69-6.647-8.733-7.175l-30.644-3.994l-14.532-28.96c-1.81-3.609-5.503-5.885-9.536-5.885
		c-0.037,0-0.077,0-0.114,0.002c-4.076,0.042-7.77,2.405-9.521,6.087l-13.268,27.91l-32.035,4.871
		c-4.03,0.615-7.358,3.469-8.577,7.359c-1.217,3.89-0.112,8.135,2.849,10.938l22.444,21.239l-5.268,31.973
		c-0.663,4.024,1.025,8.071,4.349,10.431c3.325,2.361,7.704,2.621,11.281,0.671l27.139-14.782l28.781,14.89
		c1.546,0.798,3.225,1.192,4.901,1.192c2.25,0,4.488-0.711,6.364-2.105c3.273-2.431,4.874-6.513,4.126-10.523L393.078,272.743z
		 M374.053,261.54c-2.519,2.49-3.64,6.068-2.99,9.55l2.705,14.478l-14.416-7.457c-1.537-0.796-3.22-1.192-4.901-1.192
		c-1.758,0-3.515,0.433-5.103,1.301l-12.932,7.044l2.636-16.012c0.575-3.494-0.621-7.047-3.192-9.481l-10.695-10.123l16.043-2.44
		c3.5-0.533,6.51-2.77,8.03-5.968l6.322-13.301l7.278,14.505c1.588,3.165,4.644,5.337,8.158,5.793l14.603,1.904L374.053,261.54z"/>
	<path style="fill:#000003;" d="M121.392,354.244c-5.89,0-10.669,4.777-10.669,10.669v0.256c0,5.892,4.779,10.669,10.669,10.669
		c5.892,0,10.669-4.776,10.669-10.669v-0.256C132.061,359.022,127.286,354.244,121.392,354.244z"/>
	<path style="fill:#000003;" d="M411.934,405.325c-5.892,0-10.669,4.776-10.669,10.669v0.256c0,5.891,4.776,10.669,10.669,10.669
		c5.89,0,10.669-4.777,10.669-10.669v-0.256C422.602,410.101,417.825,405.325,411.934,405.325z"/>
</g>
</svg>